<mxfile host="Electron" agent="Mozilla/5.0 (X11; Linux x86_64) AppleWebKit/537.36 (KHTML, like Gecko) draw.io/24.7.17 Chrome/128.0.6613.36 Electron/32.0.1 Safari/537.36" version="24.7.17">
  <diagram name="Страница — 1" id="5SwPczEOXvC55ZujS5_h">
    <mxGraphModel dx="1523" dy="462" grid="1" gridSize="10" guides="1" tooltips="1" connect="1" arrows="1" fold="1" page="1" pageScale="1" pageWidth="827" pageHeight="1169" math="0" shadow="0">
      <root>
        <mxCell id="0" />
        <mxCell id="1" parent="0" />
        <mxCell id="8XaKW5biIzYwm1Ug5PzD-28" value="" style="group" parent="1" vertex="1" connectable="0">
          <mxGeometry x="627" y="370" width="200" height="240" as="geometry" />
        </mxCell>
        <mxCell id="8XaKW5biIzYwm1Ug5PzD-22" value="&amp;nbsp; &amp;nbsp; &lt;font style=&quot;font-size: 14px;&quot;&gt;Комплектующее изделие&lt;/font&gt;" style="swimlane;fontStyle=0;childLayout=stackLayout;horizontal=1;startSize=30;horizontalStack=0;resizeParent=1;resizeParentMax=0;resizeLast=0;collapsible=1;marginBottom=0;whiteSpace=wrap;html=1;fillColor=#004C99;fontColor=#ffffff;strokeColor=#001DBC;align=left;" parent="8XaKW5biIzYwm1Ug5PzD-28" vertex="1">
          <mxGeometry width="200" height="120" as="geometry">
            <mxRectangle x="170" y="60" width="80" height="30" as="alternateBounds" />
          </mxGeometry>
        </mxCell>
        <mxCell id="8XaKW5biIzYwm1Ug5PzD-23" value="&lt;font color=&quot;#004c99&quot;&gt;Наименование&lt;/font&gt;" style="text;strokeColor=#56517e;fillColor=#d0cee2;align=left;verticalAlign=middle;spacingLeft=4;spacingRight=4;overflow=hidden;points=[[0,0.5],[1,0.5]];portConstraint=eastwest;rotatable=0;whiteSpace=wrap;html=1;" parent="8XaKW5biIzYwm1Ug5PzD-22" vertex="1">
          <mxGeometry y="30" width="200" height="30" as="geometry" />
        </mxCell>
        <mxCell id="8XaKW5biIzYwm1Ug5PzD-24" value="&lt;font color=&quot;#004c99&quot;&gt;Производитель&lt;/font&gt;" style="text;strokeColor=#56517e;fillColor=#d0cee2;align=left;verticalAlign=middle;spacingLeft=4;spacingRight=4;overflow=hidden;points=[[0,0.5],[1,0.5]];portConstraint=eastwest;rotatable=0;whiteSpace=wrap;html=1;" parent="8XaKW5biIzYwm1Ug5PzD-22" vertex="1">
          <mxGeometry y="60" width="200" height="30" as="geometry" />
        </mxCell>
        <mxCell id="8XaKW5biIzYwm1Ug5PzD-25" value="&lt;font color=&quot;#004c99&quot;&gt;Цена&lt;/font&gt;" style="text;strokeColor=#56517e;fillColor=#d0cee2;align=left;verticalAlign=middle;spacingLeft=4;spacingRight=4;overflow=hidden;points=[[0,0.5],[1,0.5]];portConstraint=eastwest;rotatable=0;whiteSpace=wrap;html=1;" parent="8XaKW5biIzYwm1Ug5PzD-22" vertex="1">
          <mxGeometry y="90" width="200" height="30" as="geometry" />
        </mxCell>
        <mxCell id="8XaKW5biIzYwm1Ug5PzD-26" value="&lt;font color=&quot;#004c99&quot;&gt;&lt;u&gt;Добавить новое комплектующее&lt;/u&gt;&lt;/font&gt;&lt;br&gt;&lt;div&gt;&lt;br&gt;&lt;/div&gt;&lt;div&gt;&lt;font color=&quot;#004c99&quot;&gt;&lt;u&gt;Удалить комплектующее&lt;/u&gt;&lt;/font&gt;&lt;/div&gt;&lt;div&gt;&lt;u style=&quot;color: rgb(0, 76, 153); background-color: initial;&quot;&gt;&lt;br&gt;&lt;/u&gt;&lt;/div&gt;&lt;div&gt;&lt;u style=&quot;color: rgb(0, 76, 153); background-color: initial;&quot;&gt;Получить информацию&lt;/u&gt;&lt;br&gt;&lt;/div&gt;" style="text;strokeColor=#56517e;fillColor=#d0cee2;align=left;verticalAlign=middle;spacingLeft=4;spacingRight=4;overflow=hidden;points=[[0,0.5],[1,0.5]];portConstraint=eastwest;rotatable=0;whiteSpace=wrap;html=1;" parent="8XaKW5biIzYwm1Ug5PzD-28" vertex="1">
          <mxGeometry y="150" width="200" height="90" as="geometry" />
        </mxCell>
        <mxCell id="8XaKW5biIzYwm1Ug5PzD-27" value="&lt;font color=&quot;#004c99&quot;&gt;Описание&lt;/font&gt;" style="text;strokeColor=#56517e;fillColor=#d0cee2;align=left;verticalAlign=middle;spacingLeft=4;spacingRight=4;overflow=hidden;points=[[0,0.5],[1,0.5]];portConstraint=eastwest;rotatable=0;whiteSpace=wrap;html=1;" parent="8XaKW5biIzYwm1Ug5PzD-28" vertex="1">
          <mxGeometry y="120" width="200" height="30" as="geometry" />
        </mxCell>
        <mxCell id="8XaKW5biIzYwm1Ug5PzD-29" value="" style="group" parent="1" vertex="1" connectable="0">
          <mxGeometry x="330" y="100" width="200" height="210" as="geometry" />
        </mxCell>
        <mxCell id="8XaKW5biIzYwm1Ug5PzD-8" value="&amp;nbsp; &amp;nbsp; &lt;font style=&quot;font-size: 14px;&quot;&gt;Заказ&lt;/font&gt;" style="swimlane;fontStyle=0;childLayout=stackLayout;horizontal=1;startSize=30;horizontalStack=0;resizeParent=1;resizeParentMax=0;resizeLast=0;collapsible=1;marginBottom=0;whiteSpace=wrap;html=1;fillColor=#004C99;fontColor=#ffffff;strokeColor=#001DBC;align=left;" parent="8XaKW5biIzYwm1Ug5PzD-29" vertex="1">
          <mxGeometry width="200" height="120" as="geometry">
            <mxRectangle x="170" y="60" width="80" height="30" as="alternateBounds" />
          </mxGeometry>
        </mxCell>
        <mxCell id="8XaKW5biIzYwm1Ug5PzD-9" value="&lt;font color=&quot;#004c99&quot;&gt;Номер заказа&lt;/font&gt;" style="text;strokeColor=#56517e;fillColor=#d0cee2;align=left;verticalAlign=middle;spacingLeft=4;spacingRight=4;overflow=hidden;points=[[0,0.5],[1,0.5]];portConstraint=eastwest;rotatable=0;whiteSpace=wrap;html=1;" parent="8XaKW5biIzYwm1Ug5PzD-8" vertex="1">
          <mxGeometry y="30" width="200" height="30" as="geometry" />
        </mxCell>
        <mxCell id="8XaKW5biIzYwm1Ug5PzD-10" value="&lt;font color=&quot;#004c99&quot;&gt;Дата оформления&lt;/font&gt;" style="text;strokeColor=#56517e;fillColor=#d0cee2;align=left;verticalAlign=middle;spacingLeft=4;spacingRight=4;overflow=hidden;points=[[0,0.5],[1,0.5]];portConstraint=eastwest;rotatable=0;whiteSpace=wrap;html=1;" parent="8XaKW5biIzYwm1Ug5PzD-8" vertex="1">
          <mxGeometry y="60" width="200" height="30" as="geometry" />
        </mxCell>
        <mxCell id="8XaKW5biIzYwm1Ug5PzD-11" value="&lt;font color=&quot;#004c99&quot;&gt;Дата выполнения&lt;/font&gt;" style="text;strokeColor=#56517e;fillColor=#d0cee2;align=left;verticalAlign=middle;spacingLeft=4;spacingRight=4;overflow=hidden;points=[[0,0.5],[1,0.5]];portConstraint=eastwest;rotatable=0;whiteSpace=wrap;html=1;" parent="8XaKW5biIzYwm1Ug5PzD-8" vertex="1">
          <mxGeometry y="90" width="200" height="30" as="geometry" />
        </mxCell>
        <mxCell id="8XaKW5biIzYwm1Ug5PzD-12" value="&lt;font color=&quot;#004c99&quot;&gt;&lt;u&gt;Создание нового заказа&lt;/u&gt;&lt;/font&gt;&lt;div&gt;&lt;br&gt;&lt;/div&gt;&lt;div&gt;&lt;font color=&quot;#004c99&quot;&gt;&lt;u&gt;Занести информацию&lt;/u&gt;&lt;/font&gt;&lt;/div&gt;&lt;div&gt;&lt;u style=&quot;color: rgb(0, 76, 153); background-color: initial;&quot;&gt;&lt;br&gt;&lt;/u&gt;&lt;/div&gt;&lt;div&gt;&lt;u style=&quot;color: rgb(0, 76, 153); background-color: initial;&quot;&gt;Получить информацию&lt;/u&gt;&lt;br&gt;&lt;/div&gt;" style="text;strokeColor=#56517e;fillColor=#d0cee2;align=left;verticalAlign=middle;spacingLeft=4;spacingRight=4;overflow=hidden;points=[[0,0.5],[1,0.5]];portConstraint=eastwest;rotatable=0;whiteSpace=wrap;html=1;" parent="8XaKW5biIzYwm1Ug5PzD-29" vertex="1">
          <mxGeometry y="120" width="200" height="90" as="geometry" />
        </mxCell>
        <mxCell id="8XaKW5biIzYwm1Ug5PzD-30" style="edgeStyle=orthogonalEdgeStyle;rounded=0;orthogonalLoop=1;jettySize=auto;html=1;exitX=0.5;exitY=0;exitDx=0;exitDy=0;endArrow=diamondThin;endFill=0;fillColor=#b1ddf0;strokeColor=#004C99;entryX=0.5;entryY=1;entryDx=0;entryDy=0;entryPerimeter=0;" parent="1" source="8XaKW5biIzYwm1Ug5PzD-22" target="8XaKW5biIzYwm1Ug5PzD-21" edge="1">
          <mxGeometry relative="1" as="geometry">
            <mxPoint x="720" y="290" as="targetPoint" />
          </mxGeometry>
        </mxCell>
        <mxCell id="8XaKW5biIzYwm1Ug5PzD-31" value="1" style="text;html=1;align=center;verticalAlign=middle;whiteSpace=wrap;rounded=0;fillColor=none;fontColor=#004C99;" parent="1" vertex="1">
          <mxGeometry x="710" y="330" width="60" height="30" as="geometry" />
        </mxCell>
        <mxCell id="8XaKW5biIzYwm1Ug5PzD-32" value="1..n" style="text;html=1;align=center;verticalAlign=middle;whiteSpace=wrap;rounded=0;fillColor=none;fontColor=#004C99;" parent="1" vertex="1">
          <mxGeometry x="710" y="240" width="60" height="30" as="geometry" />
        </mxCell>
        <mxCell id="8XaKW5biIzYwm1Ug5PzD-33" value="" style="group" parent="1" vertex="1" connectable="0">
          <mxGeometry x="627" y="30" width="200" height="210" as="geometry" />
        </mxCell>
        <mxCell id="8XaKW5biIzYwm1Ug5PzD-17" value="&amp;nbsp; &amp;nbsp; &lt;font style=&quot;font-size: 14px;&quot;&gt;Состав заказа&lt;/font&gt;" style="swimlane;fontStyle=0;childLayout=stackLayout;horizontal=1;startSize=30;horizontalStack=0;resizeParent=1;resizeParentMax=0;resizeLast=0;collapsible=1;marginBottom=0;whiteSpace=wrap;html=1;fillColor=#004C99;fontColor=#ffffff;strokeColor=#001DBC;align=left;" parent="8XaKW5biIzYwm1Ug5PzD-33" vertex="1">
          <mxGeometry width="200" height="120" as="geometry">
            <mxRectangle x="170" y="60" width="80" height="30" as="alternateBounds" />
          </mxGeometry>
        </mxCell>
        <mxCell id="8XaKW5biIzYwm1Ug5PzD-18" value="&lt;font color=&quot;#004c99&quot;&gt;Номер пункта заказа&lt;/font&gt;" style="text;strokeColor=#56517e;fillColor=#d0cee2;align=left;verticalAlign=middle;spacingLeft=4;spacingRight=4;overflow=hidden;points=[[0,0.5],[1,0.5]];portConstraint=eastwest;rotatable=0;whiteSpace=wrap;html=1;" parent="8XaKW5biIzYwm1Ug5PzD-17" vertex="1">
          <mxGeometry y="30" width="200" height="30" as="geometry" />
        </mxCell>
        <mxCell id="8XaKW5biIzYwm1Ug5PzD-19" value="&lt;font color=&quot;#004c99&quot;&gt;Количество комплектующих&lt;/font&gt;" style="text;strokeColor=#56517e;fillColor=#d0cee2;align=left;verticalAlign=middle;spacingLeft=4;spacingRight=4;overflow=hidden;points=[[0,0.5],[1,0.5]];portConstraint=eastwest;rotatable=0;whiteSpace=wrap;html=1;" parent="8XaKW5biIzYwm1Ug5PzD-17" vertex="1">
          <mxGeometry y="60" width="200" height="30" as="geometry" />
        </mxCell>
        <mxCell id="8XaKW5biIzYwm1Ug5PzD-20" value="&lt;font color=&quot;#004c99&quot;&gt;Цена&lt;/font&gt;" style="text;strokeColor=#56517e;fillColor=#d0cee2;align=left;verticalAlign=middle;spacingLeft=4;spacingRight=4;overflow=hidden;points=[[0,0.5],[1,0.5]];portConstraint=eastwest;rotatable=0;whiteSpace=wrap;html=1;" parent="8XaKW5biIzYwm1Ug5PzD-17" vertex="1">
          <mxGeometry y="90" width="200" height="30" as="geometry" />
        </mxCell>
        <mxCell id="8XaKW5biIzYwm1Ug5PzD-21" value="&lt;font color=&quot;#004c99&quot;&gt;&lt;u&gt;Создать строку заказа&lt;/u&gt;&lt;/font&gt;&lt;div&gt;&lt;br&gt;&lt;/div&gt;&lt;div&gt;&lt;font color=&quot;#004c99&quot;&gt;&lt;u&gt;Добавить информацию&lt;/u&gt;&lt;/font&gt;&lt;/div&gt;&lt;div&gt;&lt;u style=&quot;color: rgb(0, 76, 153); background-color: initial;&quot;&gt;&lt;br&gt;&lt;/u&gt;&lt;/div&gt;&lt;div&gt;&lt;u style=&quot;color: rgb(0, 76, 153); background-color: initial;&quot;&gt;Получить информацию&lt;/u&gt;&lt;br&gt;&lt;/div&gt;" style="text;strokeColor=#56517e;fillColor=#d0cee2;align=left;verticalAlign=middle;spacingLeft=4;spacingRight=4;overflow=hidden;points=[[0,0.5],[1,0.5]];portConstraint=eastwest;rotatable=0;whiteSpace=wrap;html=1;" parent="8XaKW5biIzYwm1Ug5PzD-33" vertex="1">
          <mxGeometry y="120" width="200" height="90" as="geometry" />
        </mxCell>
        <mxCell id="8XaKW5biIzYwm1Ug5PzD-34" value="" style="group" parent="1" vertex="1" connectable="0">
          <mxGeometry y="30" width="200" height="210" as="geometry" />
        </mxCell>
        <mxCell id="8XaKW5biIzYwm1Ug5PzD-2" value="&amp;nbsp; &amp;nbsp; &lt;font style=&quot;font-size: 14px;&quot;&gt;Клиент&lt;/font&gt;" style="swimlane;fontStyle=0;childLayout=stackLayout;horizontal=1;startSize=30;horizontalStack=0;resizeParent=1;resizeParentMax=0;resizeLast=0;collapsible=1;marginBottom=0;whiteSpace=wrap;html=1;fillColor=#004C99;fontColor=#ffffff;strokeColor=#001DBC;align=left;" parent="8XaKW5biIzYwm1Ug5PzD-34" vertex="1">
          <mxGeometry width="200" height="120" as="geometry">
            <mxRectangle x="170" y="60" width="80" height="30" as="alternateBounds" />
          </mxGeometry>
        </mxCell>
        <mxCell id="8XaKW5biIzYwm1Ug5PzD-3" value="&lt;font color=&quot;#004c99&quot;&gt;Имя&lt;/font&gt;" style="text;strokeColor=#56517e;fillColor=#d0cee2;align=left;verticalAlign=middle;spacingLeft=4;spacingRight=4;overflow=hidden;points=[[0,0.5],[1,0.5]];portConstraint=eastwest;rotatable=0;whiteSpace=wrap;html=1;" parent="8XaKW5biIzYwm1Ug5PzD-2" vertex="1">
          <mxGeometry y="30" width="200" height="30" as="geometry" />
        </mxCell>
        <mxCell id="8XaKW5biIzYwm1Ug5PzD-4" value="&lt;font color=&quot;#004c99&quot;&gt;Адрес&lt;/font&gt;" style="text;strokeColor=#56517e;fillColor=#d0cee2;align=left;verticalAlign=middle;spacingLeft=4;spacingRight=4;overflow=hidden;points=[[0,0.5],[1,0.5]];portConstraint=eastwest;rotatable=0;whiteSpace=wrap;html=1;" parent="8XaKW5biIzYwm1Ug5PzD-2" vertex="1">
          <mxGeometry y="60" width="200" height="30" as="geometry" />
        </mxCell>
        <mxCell id="8XaKW5biIzYwm1Ug5PzD-5" value="&lt;font color=&quot;#004c99&quot;&gt;Телефон&lt;/font&gt;" style="text;strokeColor=#56517e;fillColor=#d0cee2;align=left;verticalAlign=middle;spacingLeft=4;spacingRight=4;overflow=hidden;points=[[0,0.5],[1,0.5]];portConstraint=eastwest;rotatable=0;whiteSpace=wrap;html=1;" parent="8XaKW5biIzYwm1Ug5PzD-2" vertex="1">
          <mxGeometry y="90" width="200" height="30" as="geometry" />
        </mxCell>
        <mxCell id="8XaKW5biIzYwm1Ug5PzD-7" value="&lt;font color=&quot;#004c99&quot;&gt;&lt;u&gt;Добавить клиента&lt;/u&gt;&lt;/font&gt;&lt;div&gt;&lt;br&gt;&lt;/div&gt;&lt;div&gt;&lt;font color=&quot;#004c99&quot;&gt;&lt;u&gt;Удалить клиента&lt;/u&gt;&lt;/font&gt;&lt;/div&gt;&lt;div&gt;&lt;u style=&quot;color: rgb(0, 76, 153); background-color: initial;&quot;&gt;&lt;br&gt;&lt;/u&gt;&lt;/div&gt;&lt;div&gt;&lt;u style=&quot;color: rgb(0, 76, 153); background-color: initial;&quot;&gt;Получить информацию&lt;/u&gt;&lt;br&gt;&lt;/div&gt;" style="text;strokeColor=#56517e;fillColor=#d0cee2;align=left;verticalAlign=middle;spacingLeft=4;spacingRight=4;overflow=hidden;points=[[0,0.5],[1,0.5]];portConstraint=eastwest;rotatable=0;whiteSpace=wrap;html=1;" parent="8XaKW5biIzYwm1Ug5PzD-34" vertex="1">
          <mxGeometry y="120" width="200" height="90" as="geometry" />
        </mxCell>
        <mxCell id="8XaKW5biIzYwm1Ug5PzD-36" value="" style="endArrow=diamondThin;html=1;rounded=0;endFill=1;strokeColor=#004C99;entryX=1;entryY=0.25;entryDx=0;entryDy=0;exitX=0;exitY=0.25;exitDx=0;exitDy=0;" parent="1" source="8XaKW5biIzYwm1Ug5PzD-17" target="8XaKW5biIzYwm1Ug5PzD-8" edge="1">
          <mxGeometry width="50" height="50" relative="1" as="geometry">
            <mxPoint x="570" y="100" as="sourcePoint" />
            <mxPoint x="610" y="110" as="targetPoint" />
          </mxGeometry>
        </mxCell>
        <mxCell id="8XaKW5biIzYwm1Ug5PzD-41" value="Входит в" style="edgeLabel;html=1;align=center;verticalAlign=middle;resizable=0;points=[];fontColor=#004C99;" parent="8XaKW5biIzYwm1Ug5PzD-36" vertex="1" connectable="0">
          <mxGeometry x="0.0466" relative="1" as="geometry">
            <mxPoint x="1" as="offset" />
          </mxGeometry>
        </mxCell>
        <mxCell id="8XaKW5biIzYwm1Ug5PzD-38" value="1" style="text;html=1;align=center;verticalAlign=middle;whiteSpace=wrap;rounded=0;fillColor=none;fontColor=#004C99;" parent="1" vertex="1">
          <mxGeometry x="510" y="90" width="60" height="30" as="geometry" />
        </mxCell>
        <mxCell id="8XaKW5biIzYwm1Ug5PzD-42" value="1..n" style="text;html=1;align=center;verticalAlign=middle;whiteSpace=wrap;rounded=0;fillColor=none;fontColor=#004C99;" parent="1" vertex="1">
          <mxGeometry x="580" y="40" width="60" height="30" as="geometry" />
        </mxCell>
        <mxCell id="8XaKW5biIzYwm1Ug5PzD-43" value="" style="endArrow=none;html=1;rounded=0;endFill=0;strokeColor=#004C99;entryX=1;entryY=0.25;entryDx=0;entryDy=0;exitX=0;exitY=0.25;exitDx=0;exitDy=0;" parent="1" source="8XaKW5biIzYwm1Ug5PzD-8" target="8XaKW5biIzYwm1Ug5PzD-2" edge="1">
          <mxGeometry width="50" height="50" relative="1" as="geometry">
            <mxPoint x="367" y="20" as="sourcePoint" />
            <mxPoint x="270" y="90" as="targetPoint" />
          </mxGeometry>
        </mxCell>
        <mxCell id="8XaKW5biIzYwm1Ug5PzD-44" value="Оформляет" style="edgeLabel;html=1;align=center;verticalAlign=middle;resizable=0;points=[];fontColor=#004C99;" parent="8XaKW5biIzYwm1Ug5PzD-43" vertex="1" connectable="0">
          <mxGeometry x="0.0466" relative="1" as="geometry">
            <mxPoint x="1" as="offset" />
          </mxGeometry>
        </mxCell>
        <mxCell id="8XaKW5biIzYwm1Ug5PzD-45" value="1" style="text;html=1;align=center;verticalAlign=middle;whiteSpace=wrap;rounded=0;fillColor=none;fontColor=#004C99;" parent="1" vertex="1">
          <mxGeometry x="220" y="40" width="60" height="30" as="geometry" />
        </mxCell>
        <mxCell id="8XaKW5biIzYwm1Ug5PzD-46" value="1..n" style="text;html=1;align=center;verticalAlign=middle;whiteSpace=wrap;rounded=0;fillColor=none;fontColor=#004C99;" parent="1" vertex="1">
          <mxGeometry x="290" y="100" width="60" height="30" as="geometry" />
        </mxCell>
        <mxCell id="Ki1ZgbItb7ZT2UMGzOWh-1" value="" style="ellipse;whiteSpace=wrap;html=1;aspect=fixed;fillColor=none;strokeColor=#004C99;movable=0;resizable=0;rotatable=0;deletable=0;editable=0;locked=1;connectable=0;" parent="1" vertex="1">
          <mxGeometry x="381.219512195122" y="386.6666666666667" width="98.78048780487806" height="98.78048780487806" as="geometry" />
        </mxCell>
        <mxCell id="Ki1ZgbItb7ZT2UMGzOWh-3" value="" style="endArrow=open;html=1;rounded=0;entryX=0.569;entryY=1.025;entryDx=0;entryDy=0;entryPerimeter=0;endFill=0;strokeColor=#004C99;" parent="1" edge="1">
          <mxGeometry width="50" height="50" relative="1" as="geometry">
            <mxPoint x="447" y="432" as="sourcePoint" />
            <mxPoint x="447.0731707317073" y="310" as="targetPoint" />
            <Array as="points">
              <mxPoint x="447.2926829268293" y="352.7833333333333" />
            </Array>
          </mxGeometry>
        </mxCell>
        <mxCell id="uqoiniOSmbgr6Ab_9YfZ-2" value="" style="endArrow=none;html=1;rounded=0;strokeColor=#004C99;exitX=0.357;exitY=0.022;exitDx=0;exitDy=0;exitPerimeter=0;" edge="1" parent="1" source="Ki1ZgbItb7ZT2UMGzOWh-1">
          <mxGeometry width="50" height="50" relative="1" as="geometry">
            <mxPoint x="419.63414634146346" y="386.6666666666667" as="sourcePoint" />
            <mxPoint x="447.07317073170736" y="364" as="targetPoint" />
          </mxGeometry>
        </mxCell>
        <mxCell id="uqoiniOSmbgr6Ab_9YfZ-3" value="" style="endArrow=none;html=1;rounded=0;strokeColor=#004C99;exitX=0.365;exitY=0.019;exitDx=0;exitDy=0;exitPerimeter=0;" edge="1" parent="1" source="Ki1ZgbItb7ZT2UMGzOWh-1">
          <mxGeometry width="50" height="50" relative="1" as="geometry">
            <mxPoint x="410.6400572885786" y="411.4617989132454" as="sourcePoint" />
            <mxPoint x="447.07317073170736" y="409.33333333333337" as="targetPoint" />
          </mxGeometry>
        </mxCell>
        <mxCell id="uqoiniOSmbgr6Ab_9YfZ-4" value="" style="ellipse;whiteSpace=wrap;html=1;aspect=fixed;fillColor=none;strokeColor=#004C99;movable=1;resizable=1;rotatable=1;deletable=1;editable=1;locked=0;connectable=1;" vertex="1" parent="1">
          <mxGeometry x="51.951219512195124" y="386.6666666666667" width="98.78048780487806" height="98.78048780487806" as="geometry" />
        </mxCell>
        <mxCell id="uqoiniOSmbgr6Ab_9YfZ-5" value="" style="endArrow=open;html=1;rounded=0;endFill=0;strokeColor=#004C99;" edge="1" parent="1">
          <mxGeometry width="50" height="50" relative="1" as="geometry">
            <mxPoint x="106.82926829268294" y="432" as="sourcePoint" />
            <mxPoint x="447.07317073170736" y="432" as="targetPoint" />
          </mxGeometry>
        </mxCell>
        <mxCell id="uqoiniOSmbgr6Ab_9YfZ-6" value="" style="ellipse;whiteSpace=wrap;html=1;aspect=fixed;fillColor=none;strokeColor=#004C99;movable=1;resizable=1;rotatable=1;deletable=1;editable=1;locked=0;connectable=1;" vertex="1" parent="1">
          <mxGeometry x="51.951219512195124" y="568" width="98.78048780487806" height="98.78048780487806" as="geometry" />
        </mxCell>
        <mxCell id="uqoiniOSmbgr6Ab_9YfZ-8" value="" style="endArrow=diamondThin;html=1;rounded=0;endFill=0;strokeColor=#004C99;" edge="1" parent="1">
          <mxGeometry width="50" height="50" relative="1" as="geometry">
            <mxPoint x="106.82926829268294" y="432" as="sourcePoint" />
            <mxPoint x="106.82926829268294" y="613.3333333333334" as="targetPoint" />
          </mxGeometry>
        </mxCell>
        <mxCell id="uqoiniOSmbgr6Ab_9YfZ-11" value="" style="group" vertex="1" connectable="0" parent="1">
          <mxGeometry x="30" y="568" width="21.951219512195124" height="102" as="geometry" />
        </mxCell>
        <mxCell id="uqoiniOSmbgr6Ab_9YfZ-9" value="" style="endArrow=none;html=1;rounded=0;strokeColor=#004C99;" edge="1" parent="uqoiniOSmbgr6Ab_9YfZ-11">
          <mxGeometry width="50" height="50" relative="1" as="geometry">
            <mxPoint y="102" as="sourcePoint" />
            <mxPoint as="targetPoint" />
          </mxGeometry>
        </mxCell>
        <mxCell id="uqoiniOSmbgr6Ab_9YfZ-10" value="" style="endArrow=none;html=1;rounded=0;strokeColor=#004C99;" edge="1" parent="uqoiniOSmbgr6Ab_9YfZ-11">
          <mxGeometry width="50" height="50" relative="1" as="geometry">
            <mxPoint y="50.67133333333338" as="sourcePoint" />
            <mxPoint x="21.951219512195124" y="51" as="targetPoint" />
          </mxGeometry>
        </mxCell>
        <mxCell id="uqoiniOSmbgr6Ab_9YfZ-12" value="" style="group" vertex="1" connectable="0" parent="1">
          <mxGeometry x="30" y="386.6666666666667" width="21.951219512195124" height="102" as="geometry" />
        </mxCell>
        <mxCell id="uqoiniOSmbgr6Ab_9YfZ-13" value="" style="endArrow=none;html=1;rounded=0;strokeColor=#004C99;" edge="1" parent="uqoiniOSmbgr6Ab_9YfZ-12">
          <mxGeometry width="50" height="50" relative="1" as="geometry">
            <mxPoint y="102" as="sourcePoint" />
            <mxPoint as="targetPoint" />
          </mxGeometry>
        </mxCell>
        <mxCell id="uqoiniOSmbgr6Ab_9YfZ-14" value="" style="endArrow=none;html=1;rounded=0;strokeColor=#004C99;" edge="1" parent="uqoiniOSmbgr6Ab_9YfZ-12">
          <mxGeometry width="50" height="50" relative="1" as="geometry">
            <mxPoint y="50.67133333333338" as="sourcePoint" />
            <mxPoint x="21.951219512195124" y="51" as="targetPoint" />
          </mxGeometry>
        </mxCell>
        <mxCell id="uqoiniOSmbgr6Ab_9YfZ-18" value="&lt;font color=&quot;#004c99&quot; style=&quot;font-size: 11px;&quot;&gt;Менеджер по работе с заказами&lt;/font&gt;" style="text;html=1;align=center;verticalAlign=middle;whiteSpace=wrap;rounded=0;" vertex="1" parent="1">
          <mxGeometry x="321.11" y="480" width="219" height="30" as="geometry" />
        </mxCell>
        <mxCell id="uqoiniOSmbgr6Ab_9YfZ-20" value="&lt;font color=&quot;#004c99&quot;&gt;&lt;span style=&quot;font-size: 11px;&quot;&gt;Добавление нового заказа&lt;/span&gt;&lt;/font&gt;" style="text;html=1;align=center;verticalAlign=middle;whiteSpace=wrap;rounded=0;" vertex="1" parent="1">
          <mxGeometry x="-9.5" y="480" width="219" height="30" as="geometry" />
        </mxCell>
        <mxCell id="uqoiniOSmbgr6Ab_9YfZ-22" value="&lt;font color=&quot;#004c99&quot;&gt;&lt;span style=&quot;font-size: 11px;&quot;&gt;Параметры работы с заказом&lt;/span&gt;&lt;/font&gt;" style="text;html=1;align=center;verticalAlign=middle;whiteSpace=wrap;rounded=0;" vertex="1" parent="1">
          <mxGeometry x="-8.16" y="666.78" width="219" height="30" as="geometry" />
        </mxCell>
        <mxCell id="uqoiniOSmbgr6Ab_9YfZ-23" value="1" style="text;html=1;align=center;verticalAlign=middle;whiteSpace=wrap;rounded=0;fillColor=none;fontColor=#004C99;" vertex="1" parent="1">
          <mxGeometry x="90.73" y="400" width="60" height="30" as="geometry" />
        </mxCell>
        <mxCell id="uqoiniOSmbgr6Ab_9YfZ-24" value="1" style="text;html=1;align=center;verticalAlign=middle;whiteSpace=wrap;rounded=0;fillColor=none;fontColor=#004C99;" vertex="1" parent="1">
          <mxGeometry x="60" y="440" width="60" height="30" as="geometry" />
        </mxCell>
        <mxCell id="uqoiniOSmbgr6Ab_9YfZ-25" value="1" style="text;html=1;align=center;verticalAlign=middle;whiteSpace=wrap;rounded=0;fillColor=none;fontColor=#004C99;" vertex="1" parent="1">
          <mxGeometry x="70" y="580" width="60" height="30" as="geometry" />
        </mxCell>
        <mxCell id="uqoiniOSmbgr6Ab_9YfZ-26" value="1" style="text;html=1;align=center;verticalAlign=middle;whiteSpace=wrap;rounded=0;fillColor=none;fontColor=#004C99;" vertex="1" parent="1">
          <mxGeometry x="430" y="400" width="60" height="30" as="geometry" />
        </mxCell>
        <mxCell id="uqoiniOSmbgr6Ab_9YfZ-27" value="1" style="text;html=1;align=center;verticalAlign=middle;whiteSpace=wrap;rounded=0;fillColor=none;fontColor=#004C99;movable=0;resizable=0;rotatable=0;deletable=0;editable=0;locked=1;connectable=0;" vertex="1" parent="1">
          <mxGeometry x="400" y="400" width="60" height="30" as="geometry" />
        </mxCell>
        <mxCell id="uqoiniOSmbgr6Ab_9YfZ-28" value="1..n" style="text;html=1;align=center;verticalAlign=middle;whiteSpace=wrap;rounded=0;fillColor=none;fontColor=#004C99;" vertex="1" parent="1">
          <mxGeometry x="430" y="340" width="60" height="20" as="geometry" />
        </mxCell>
      </root>
    </mxGraphModel>
  </diagram>
</mxfile>
